<?xml version="1.0" ?><svg id="Layer_1_1_" style="enable-background:new 0 0 64 64;" version="1.1" viewBox="0 0 64 64" xml:space="preserve" xmlns="http://www.w3.org/2000/svg" xmlns:xlink="http://www.w3.org/1999/xlink"><g><path d="M63,1H1v48h8v14h46V49h8V1z M61,3v6H3V3H61z M53,61H11V19h42V61z M55,47V17H9v30H3V11h58v36H55z"/><rect height="2" width="2" x="5" y="5"/><rect height="2" width="2" x="9" y="5"/><rect height="2" width="2" x="13" y="5"/><path d="M33,21H13v14h20V21z M31,33H15V23h16V33z"/><path d="M19,49h-6v10h6V49z M17,57h-2v-6h2V57z"/><path d="M21,59h6V41h-6V59z M23,43h2v14h-2V43z"/><path d="M29,59h6v-8h-6V59z M31,53h2v4h-2V53z"/><path d="M37,59h6V37h-6V59z M39,39h2v18h-2V39z"/><path d="M45,59h6V45h-6V59z M47,47h2v10h-2V47z"/><rect height="2" width="16" x="35" y="21"/><rect height="2" width="12" x="39" y="25"/><rect height="2" width="2" x="35" y="25"/><rect height="2" width="16" x="35" y="29"/><rect height="2" width="2" x="49" y="33"/><rect height="2" width="12" x="35" y="33"/></g></svg>