<?xml version="1.0" ?><svg enable-background="new -136.999 83.974 340.36 395.589" id="Layer_1" version="1.1" viewBox="-136.999 83.974 340.36 395.589" xml:space="preserve" xmlns="http://www.w3.org/2000/svg" xmlns:xlink="http://www.w3.org/1999/xlink"><g><g id="_x32_8_x2C__CSS_x2C__File_Type_x2C__Style_x2C__Sheet"><g><g><g><g><path d="M-34.997,202.006c-7,4-15.89,6.79-23.89,2.79c-1-1-3.121-1.787-5.121-2.787c-3.996-3.996-6.769-9.139-8.396-14.507        c-1.63-5.38-2.065-10.979,0.438-16.485c4-9,13.013-11.727,22.013-10.727c3-3,11.653-3.331,10.653,1.669        c0,2,0.246,7.309-5.754,6.309c1,0,2.17-0.501,3.17-1.501c-6.001-1.5-12.131-0.429-16.881,2.572        c-4.749,3-7.954,8.13-9.953,13.629c3,3,4.41,7.341,7.41,10.341c1,1,3.308,1.928,4.308,1.928c2,0,4.17-1.519,6.17-0.519        c3,2,5.688,1.998,8.688,1.998c0.633-0.316-1.078-0.008-1.078-0.715c1,0,1.913,1.154,2.913,2.154c0,1,0.596,0.702,0.596,1.702        c1,1,1.73,3.199,4.73,2.199C-34.979,202.054-34.997,202.006-34.997,202.006z"/></g><g><path d="M-29,194.435c2,0,3-0.051,4,2.949c4-3,9.727-3.588,14.727-5.588c-2-2-4.633-1.945-4.633-4.945        c-8-2-13.932-7.954-18.932-14.954c-4-7,3.838-14.362,10.838-14.362c5,0,8,0.2,13,0.2c3,0,5.538,2.266,8.538,3.266        c-3,2-1.563,5.939-1.563,8.939c-5-1-8.808-3.386-12.808-5.386c-4-1-5.956,5.353-4.956,8.353c3,6,9.704,7.221,14.704,10.221        c4,3,2.493,8.959,1.493,12.959c-1.036,5.697-5.646,8.706-10.757,9.475c-4.758,0.715-10.271-0.736-14.61-2.665        c-3-1-3.993-7.47,1.007-8.47C-28.736,194.402-29,194.435-29,194.435z"/></g><g><path d="M5,193.956c3,0,4.093,2.58,6.093,3.58c3,0,6.862-0.563,8.862-3.563c1-2-2.138-2.064-2.138-4.064        c1,0,1.222,0.061,1.222-0.939c-4-4-8.881-7.127-12.881-10.127c-1-2-4.552-3.908-4.552-5.908c1-4,3.227-8.148,6.227-11.148        c4.012-2.507,8.684-3.667,13.323-4.039c4.612-0.369,9.507,0.131,13.994,1.128c-2,2-3.706,3.301-4.706,5.301        c-1,3,0.612,4.6,3.612,3.6c-7,0-14.333-4.192-21.333,0.808c-2,1-0.883,1.475-0.883,2.475c3,7,13.567,5.771,16.567,11.771        c2,6,3.396,13.952-1.604,18.952c-6,5-14.833,4.253-20.833,0.253c-1-2,1.299-6.299-0.701-8.299        C5.253,193.721,5,193.956,5,193.956z"/></g></g><g><path d="M203.199,467.54c-0.889-4.88-1.549-10.146-1.912-15.227c-0.126-1.754-0.238-3.507-0.352-5.269       c-0.228-3.53-0.463-7.18-0.803-10.913c-0.553-6.454-0.972-11.841-1.317-16.95c-0.24-3.554-0.389-7.224-0.532-10.773       c-0.083-2.07-0.167-4.138-0.268-6.201c-0.107-2.193-0.237-4.382-0.367-6.567c-0.215-3.592-0.416-6.985-0.519-10.397       c-0.183-6.193-0.26-12.33-0.308-16.986c-0.028-2.794-0.17-5.526-0.307-8.169c-0.16-3.076-0.311-5.981-0.282-8.816       c0.027-2.883,0.223-5.818,0.431-8.926c0.173-2.588,0.351-5.263,0.433-7.986c0.143-3.497,0.249-6.989,0.354-10.478       c0.079-2.591,0.158-5.18,0.252-7.764c0.104-2.838,0.262-5.762,0.413-8.589c0.171-3.158,0.347-6.424,0.455-9.687       c0.11-3.296,0.078-6.539,0.048-9.675c-0.029-2.99-0.057-5.813,0.031-8.612c0.099-3.147,0.179-6.293,0.259-9.439       c0.075-2.941,0.149-5.881,0.24-8.822c0.085-2.764,0.336-5.585,0.602-8.572c0.276-3.113,0.563-6.333,0.668-9.65       c0.102-3.232,0.228-6.464,0.354-9.698c0.11-2.841,0.221-5.683,0.315-8.526c0.105-3.146,0.099-6.262,0.092-9.274       c-0.007-3.104-0.014-6.037,0.094-8.96c0.113-3.092,0.291-6.151,0.479-9.391c0.167-2.871,0.34-5.839,0.461-8.809       c0.006-0.136,0.009-0.272,0.009-0.408c0-2.996-0.165-5.98-0.325-8.867c-0.156-2.833-0.305-5.508-0.305-8.138       c0-2.864,0.037-5.728,0.073-8.56c0.037-2.855,0.073-5.679,0.073-8.44c0-0.901-0.094-1.738-0.245-2.527       c0.456-1.344,0.641-2.802,0.474-4.305c-0.602-5.433-5.456-9.351-10.876-8.845c-1.758-1.687-3.505-3.442-5.305-5.259       c-1.192-1.204-2.383-2.405-3.584-3.592c-2.171-2.146-4.389-4.115-6.533-6.019c-2.637-2.342-5.128-4.553-7.296-6.876       c-2.156-2.309-4.229-4.654-6.424-7.138c-2.084-2.357-4.238-4.795-6.455-7.179l-1.43-1.54       c-3.872-4.17-7.876-8.482-12.051-12.656c-1.876-1.876-4.42-2.929-7.07-2.929c-0.045,0-0.09,0-0.134,0.001       c-2.969,0.035-5.966-0.089-9.145-0.226c-3.001-0.129-6.112-0.267-9.287-0.252c-3.322,0.011-6.542,0.227-9.654,0.435       c-3.096,0.207-6.021,0.395-8.855,0.39c-2.889-0.012-5.831-0.188-8.947-0.375c-3.099-0.186-6.302-0.378-9.582-0.408       c-3.354-0.033-6.645,0.141-9.811,0.307c-3.058,0.161-5.948,0.311-8.755,0.279c-2.81-0.034-5.679-0.236-8.717-0.45       c-3.182-0.224-6.473-0.455-9.857-0.497c-2.894-0.036-5.786-0.096-8.68-0.157c-3.309-0.069-6.618-0.138-9.925-0.171       c-3.556-0.037-7.115-0.033-10.669-0.029c-2.656,0.003-5.311,0.006-7.966-0.009C1.509,83.96-1.897,84.09-5.188,84.219       c-2.951,0.116-5.737,0.225-8.509,0.229c-3.819,0.005-7.658,0.075-11.371,0.141c-2.436,0.044-4.87,0.088-7.307,0.114       c-2.688,0.034-5.417-0.067-8.305-0.17c-3.365-0.121-6.847-0.243-10.406-0.162c-2.416,0.055-4.833,0.083-7.249,0.112       c-3.746,0.044-7.619,0.09-11.484,0.234c-4.156,0.154-8.315,0.407-12.337,0.651c-2.122,0.129-4.244,0.258-6.366,0.373       c-4.91,0.251-8.963,4.052-9.474,8.962c-0.216,2.078,0.241,4.398,1.498,6.393c0.853,3.178,1.388,6.678,1.837,10.042       c0.414,3.102,0.478,6.414,0.486,9.689c-0.861,0.394-1.671,0.899-2.392,1.513c-1.369,0.056-2.813,0.061-4.345,0.066       c-4.231,0.014-9.014,0.03-14.063,1.239c-0.806,0.11-2.194-0.214-3.792-0.582c-2.221-0.511-4.985-1.147-8.232-1.147       c-5.523,0-10,4.477-10,10c0,3.172,1.477,5.999,3.78,7.831c0.713,1.941,1.041,4.488,1.409,7.34       c0.185,1.436,0.376,2.92,0.633,4.48c1.087,7.638,1.603,13.458,1.67,18.855c0.041,3.37-0.148,6.778-0.349,10.387       c-0.176,3.172-0.358,6.452-0.379,9.788c-0.039,6.313,0.309,12.977,1.093,20.938c0.022,1.803,0.154,3.486,0.282,5.118       c0.297,3.79,0.433,6.205-0.473,8.015c-1.629,3.259-1.357,7.147,0.71,10.147s5.605,4.641,9.229,4.275       c4.454-0.446,9.346-0.748,14.146-0.875c3.156-0.083,6.31-0.112,9.609-0.123c-0.264,2.381-0.469,4.7-0.667,6.984       c-0.232,2.667-0.451,5.186-0.761,7.668c-0.016,0.125-0.029,0.249-0.04,0.374c-0.332,3.82-0.43,7.594-0.525,11.243       c-0.06,2.293-0.116,4.458-0.226,6.63c-0.333,6.595-0.578,12.38-0.746,17.684c-0.088,2.744-0.209,5.487-0.33,8.227       c-0.133,3.04-0.271,6.183-0.363,9.3c-0.085,2.901-0.33,5.828-0.589,8.927c-0.228,2.731-0.464,5.556-0.592,8.509       c-0.124,3.601-0.02,7.104,0.082,10.493c0.075,2.501,0.145,4.864,0.126,7.197c-0.015,1.811-0.042,3.621-0.068,5.432       c-0.058,3.979-0.118,8.092-0.056,12.214l0.049,3.43c0.064,4.633,0.13,9.424,0.302,14.189c0.081,2.246,0.131,4.495,0.182,6.744       c0.08,3.531,0.162,7.183,0.359,10.848c0.185,3.442,0.625,6.727,1.05,9.902c0.351,2.621,0.682,5.1,0.851,7.501       c0.123,2.347,0.228,4.679,0.333,6.999c0.174,3.854,0.353,7.837,0.612,11.773c0.158,2.405,0.229,4.834,0.304,7.404       c0.11,3.777,0.225,7.683,0.635,11.698c0.474,4.639,1.247,9.186,1.995,13.582c0.307,1.804,0.615,3.62,0.905,5.454       c0.425,2.689,1.928,5.089,4.163,6.645s5.005,2.131,7.676,1.6c2.037-0.407,5.114-0.204,8.088-0.007       c2.028,0.134,4.132,0.324,6.239,0.252c2.724-0.094,5.443-0.238,8.073-0.378c3.572-0.189,6.947-0.368,10.337-0.433       c3.356-0.066,6.694-0.024,10.227,0.019c2.681,0.034,5.454,0.065,8.222,0.05l4.827-0.035c4.481-0.034,9.112-0.071,13.64-0.048       c3.124,0.015,6.245,0.144,9.55,0.28c2.905,0.12,5.908,0.245,8.932,0.285c3.394,0.046,6.882,0.149,10.256,0.249       c2.749,0.082,5.498,0.163,8.246,0.218c2.892,0.058,5.784,0.083,8.676,0.107c3.243,0.028,6.596,0.058,9.855,0.136       c3.1,0.074,6.209,0.096,9.216,0.116c3.077,0.021,6.26,0.043,9.338,0.122c3.142,0.082,6.284,0.131,9.427,0.18       c3.049,0.048,6.098,0.095,9.148,0.174c2.829,0.072,5.684,0.271,8.705,0.483c3.197,0.224,6.503,0.454,9.875,0.532       c3.383,0.079,6.769,0.071,10.035,0.073c2.83-0.005,5.759-0.005,8.591,0.047c3.466,0.064,6.931,0.04,10.28,0.016       c2.757-0.02,5.607-0.039,8.367-0.009c2.682,0.03,5.452,0.108,8.132,0.185c3.43,0.097,6.976,0.197,10.532,0.205       c0.09,0,0.18,0,0.27,0c3.462,0,6.88-0.135,10.188-0.266c2.847-0.113,5.536-0.22,8.228-0.245       c2.664-0.032,5.428,0.058,8.353,0.146c3.5,0.104,7.116,0.212,10.716,0.13c2.924-0.067,5.672-1.411,7.521-3.679       S203.723,470.418,203.199,467.54z M153.757,130.227c2.806,3.006,5.769,5.637,8.635,8.182c0.41,0.364,0.794,0.713,1.195,1.07       c-2.795-0.003-5.589-0.005-8.376,0.028c-1.726,0.021-3.442,0.007-5.154-0.005c-1.408-0.011-2.83-0.022-4.267-0.015       c-0.097-1.46-0.165-3.018-0.207-4.705c-0.035-1.399-0.05-2.799-0.063-4.2c-0.034-3.204-0.082-6.508-0.346-9.916       c0.594,0.67,1.182,1.329,1.791,2.018C149.152,125.16,151.415,127.72,153.757,130.227z M-105.773,218.223       c-0.973,0.026-1.949,0.058-2.926,0.097c-0.057-1.122-0.141-2.199-0.222-3.228c-0.115-1.472-0.224-2.862-0.224-4.085       c0-0.333-0.017-0.665-0.05-0.995c-0.745-7.448-1.076-13.578-1.04-19.292c0.017-2.842,0.178-5.736,0.348-8.8       c0.21-3.783,0.428-7.694,0.378-11.743c-0.078-6.321-0.66-12.966-1.885-21.545c-0.011-0.077-0.023-0.154-0.036-0.23       c-0.206-1.239-0.371-2.516-0.545-3.868c-0.046-0.36-0.093-0.724-0.142-1.091c0.388-0.056,0.78-0.123,1.178-0.202       c0.156-0.031,0.311-0.066,0.464-0.104c2.822-0.706,5.977-0.716,9.629-0.729c4.329-0.014,9.235-0.03,14.413-1.325       c0.367-0.092,0.729-0.205,1.083-0.337c0.511-0.191,0.999-0.418,1.461-0.678c3.481,0.102,6.949,0.222,10.365,0.361       c2.707,0.11,5.458,0.368,8.372,0.641c2.705,0.254,5.501,0.516,8.365,0.663c2.831,0.145,5.656,0.226,8.387,0.304       c2.923,0.083,5.685,0.162,8.458,0.313l5.749,0.32c3.72,0.209,7.439,0.418,11.16,0.604c2.379,0.119,4.758,0.28,7.135,0.44       c3.204,0.215,6.518,0.438,9.854,0.564c3.417,0.128,6.687-0.02,9.848-0.164c2.542-0.116,4.945-0.223,7.251-0.183       c2.258,0.041,4.571,0.196,7.019,0.361c3.26,0.22,6.629,0.447,10.14,0.414l1.677-0.015c5-0.045,10.168-0.092,15.337-0.316       c4.361-0.004,8.598-0.121,12.697-0.233c2.101-0.058,4.192-0.115,6.286-0.157c1.003-0.02,1.999-0.053,2.994-0.086       c1.255,0.048,2.51,0.095,3.766,0.151c0.354,0.016,0.714,0.037,1.069,0.054c-0.073,1.167-0.143,2.33-0.211,3.482       c-0.082,1.385-0.164,2.771-0.253,4.152c-0.128,1.994-0.271,3.987-0.416,5.982c-0.321,4.459-0.653,9.07-0.814,13.72       c-0.106,3.104-0.297,6.186-0.499,9.448c-0.201,3.245-0.408,6.601-0.524,9.969c-0.103,2.952-0.097,5.863-0.091,8.679       c0.007,3.654,0.014,7.105-0.203,10.477c-0.228,3.54-0.678,7.045-1.182,10.692c-1.126-0.082-2.254-0.162-3.392-0.235       c-3.159-0.203-6.277-0.278-9.292-0.352c-3.095-0.075-6.018-0.146-8.903-0.343c-3.163-0.217-6.327-0.401-9.488-0.584       c-2.914-0.169-5.826-0.339-8.737-0.535c-2.731-0.184-5.436-0.428-8.299-0.687c-3.237-0.292-6.583-0.595-9.954-0.799       c-3.502-0.212-6.952-0.262-10.289-0.31c-2.8-0.041-5.444-0.079-8.077-0.206c-2.545-0.123-5.152-0.4-7.912-0.694       c-3.365-0.358-6.844-0.728-10.465-0.838c-6.573-0.2-13.031-0.268-18.482-0.308c-4.025-0.035-8.011,0.116-11.867,0.257       c-2.221,0.082-4.443,0.163-6.667,0.209c-3.932,0.083-7.735,0.395-11.414,0.696c-2.419,0.198-4.705,0.385-7.016,0.511       c-0.752,0.041-1.498,0.167-2.223,0.376c-1.053,0.303-2.034,0.716-2.94,1.216c-1.143,0.004-2.286,0.009-3.43,0.009       C-96.216,218.085-100.929,218.095-105.773,218.223z M181.1,224.18c-0.094,2.808-0.203,5.613-0.313,8.417       c-0.127,3.283-0.255,6.565-0.358,9.843c-0.087,2.747-0.336,5.547-0.6,8.512c-0.278,3.139-0.567,6.384-0.67,9.726       c-0.092,2.976-0.168,5.953-0.243,8.93c-0.079,3.105-0.158,6.211-0.256,9.318c-0.101,3.211-0.07,6.376-0.04,9.437       c0.03,3.059,0.059,5.948-0.037,8.813c-0.103,3.058-0.272,6.221-0.438,9.278c-0.157,2.912-0.319,5.924-0.429,8.936       c-0.096,2.625-0.176,5.253-0.256,7.884c-0.104,3.437-0.209,6.878-0.35,10.323c-0.002,0.038-0.003,0.076-0.005,0.115       c-0.069,2.372-0.229,4.767-0.398,7.302c-0.217,3.251-0.441,6.613-0.475,10.064c-0.033,3.449,0.141,6.802,0.309,10.045       c0.132,2.552,0.257,4.962,0.281,7.338c0.048,4.745,0.127,11.008,0.316,17.376c0.11,3.711,0.33,7.413,0.544,10.993       c0.126,2.114,0.252,4.231,0.355,6.354c0.099,2.008,0.18,4.019,0.261,6.033c0.148,3.683,0.303,7.49,0.561,11.314       c0.354,5.233,0.782,10.734,1.351,17.361c0.32,3.521,0.547,7.038,0.766,10.438c0.116,1.811,0.232,3.61,0.361,5.41       c0.129,1.81,0.288,3.616,0.478,5.417c-2.467-0.07-4.986-0.124-7.481-0.105c-2.995,0.029-5.962,0.146-8.83,0.261       c-3.335,0.132-6.486,0.252-9.623,0.25c-3.295-0.007-6.557-0.1-10.01-0.197c-2.764-0.078-5.621-0.159-8.472-0.19       c-1.123-0.013-2.247-0.018-3.365-0.018c-1.812,0-3.608,0.013-5.369,0.024c-3.373,0.024-6.56,0.046-9.771-0.012       c-3.024-0.055-6.053-0.054-8.975-0.051c-3.297,0-6.411,0.005-9.556-0.067c-2.905-0.067-5.838-0.272-8.943-0.489       c-3.104-0.218-6.315-0.441-9.584-0.526c-3.118-0.08-6.236-0.129-9.354-0.177c-3.072-0.048-6.145-0.096-9.217-0.176       c-3.271-0.084-6.55-0.106-9.721-0.128c-2.923-0.021-5.945-0.041-8.873-0.111c-3.412-0.082-6.844-0.111-10.162-0.141       c-2.817-0.024-5.634-0.049-8.453-0.104c-2.683-0.053-5.366-0.133-8.048-0.213c-3.454-0.103-7.025-0.208-10.582-0.256       c-2.745-0.037-5.479-0.15-8.374-0.27c-3.339-0.139-6.792-0.281-10.282-0.298c-4.648-0.022-9.346,0.014-13.887,0.049       l-4.797,0.034c-2.586,0.017-5.266-0.017-7.856-0.048c-3.531-0.043-7.185-0.088-10.853-0.017       c-3.728,0.071-7.431,0.268-11.012,0.457c-2.479,0.131-5.04,0.267-7.522,0.355c-1.298-0.009-2.813-0.108-4.413-0.215       c-0.958-0.063-1.946-0.128-2.958-0.179c-0.521-3.139-0.986-6.169-1.293-9.171c-0.336-3.293-0.435-6.672-0.54-10.249       c-0.077-2.637-0.157-5.363-0.339-8.135c-0.246-3.729-0.413-7.436-0.589-11.358c-0.108-2.398-0.217-4.81-0.344-7.234       c-0.003-0.054-0.006-0.107-0.01-0.161c-0.211-3.067-0.605-6.011-0.986-8.857c-0.391-2.918-0.759-5.675-0.902-8.325       c-0.18-3.353-0.255-6.689-0.335-10.223c-0.053-2.339-0.106-4.676-0.189-7.012c-0.164-4.545-0.229-9.224-0.291-13.748       l-0.049-3.456c-0.058-3.824-0.003-7.611,0.056-11.619c0.027-1.854,0.054-3.706,0.069-5.56c0.022-2.713-0.057-5.379-0.134-7.958       c-0.096-3.213-0.187-6.249-0.088-9.118c0.107-2.465,0.316-4.97,0.538-7.622c0.27-3.227,0.548-6.563,0.649-10.003       c0.087-2.973,0.223-6.042,0.353-9.01c0.124-2.819,0.248-5.643,0.338-8.468c0.165-5.18,0.404-10.842,0.731-17.311       c0.123-2.417,0.185-4.809,0.245-7.122c0.089-3.44,0.174-6.694,0.441-9.853c0.344-2.79,0.583-5.55,0.815-8.222       c0.256-2.951,0.511-5.812,0.887-8.692c0.532,0.01,1.065,0.016,1.598,0.03c2.206,0.057,4.412,0.089,6.615,0.122       c3.646,0.053,7.089,0.104,10.549,0.26c2.804,0.126,5.652,0.414,8.668,0.719c2.751,0.278,5.596,0.565,8.507,0.734       c2.938,0.17,5.843,0.235,8.653,0.299c2.996,0.067,5.825,0.131,8.629,0.312l7.799,0.509c3.171,0.208,6.346,0.417,9.525,0.619       c3.271,0.209,6.557,0.353,9.735,0.492c2.551,0.112,5.107,0.223,7.761,0.375c1.743,0.083,3.491,0.198,5.245,0.313       c3.611,0.236,7.345,0.481,11.214,0.481c0.012,0,0.023,0,0.035,0c4.964-0.002,10.207-0.14,16.497-0.435l2.203-0.102       c4.649-0.212,9.457-0.431,14.273-0.881c2.784-0.26,5.44-0.638,8.018-1.039c0.241,0.018,0.484,0.036,0.725,0.055       c3.4,0.261,6.916,0.531,10.504,0.727c4.493,0.242,8.605-2.548,10.03-6.823c1.76-5.278,2.36-10.635,2.941-15.816       c0.209-1.862,0.425-3.788,0.69-5.647c0.013-0.089,0.024-0.179,0.035-0.27c0.789-6.85,1.42-13.239,1.929-19.534       c0.338-4.189,0.448-8.305,0.555-12.286c0.067-2.523,0.131-4.906,0.249-7.299l0.209-4.148       c0.257-5.008,0.522-10.188,0.637-15.384c0.044-2.029,0.101-4.056,0.157-6.084c0.122-4.336,0.248-8.819,0.248-13.359       c0-5.325-4.173-9.716-9.491-9.987c-0.101-0.005-0.201-0.012-0.301-0.018c-1.943-1.5-4.376-2.254-6.869-2.065       c-4.51,0.347-9.692,0.71-14.979,0.902c-1.975-0.073-3.949-0.142-5.922-0.208c-2.392-0.08-4.781-0.16-7.17-0.253       c-2.584-0.1-5.166-0.225-7.747-0.349c-3.231-0.155-6.572-0.316-9.892-0.428c-2.691-0.091-5.362-0.248-8.19-0.415       c-3.071-0.181-6.247-0.367-9.444-0.461c-3.185-0.094-6.352-0.096-9.415-0.099c-2.845-0.002-5.532-0.004-8.233-0.073       c-2.735-0.07-5.47-0.178-8.205-0.286c-3.075-0.121-6.255-0.246-9.425-0.317l-5.706-0.131       c-3.973-0.093-7.947-0.186-11.921-0.265c-3.209-0.064-6.347,0.026-9.384,0.115c-2.87,0.083-5.583,0.164-8.251,0.113       c-2.794-0.051-5.686-0.16-8.482-0.266c-2.975-0.112-6.051-0.228-9.131-0.282c-1.641-0.028-3.303-0.075-4.956-0.127       c-0.018-3.653-0.123-7.617-0.663-11.662c-0.153-1.148-0.316-2.314-0.497-3.492c2.094-0.116,4.192-0.221,6.258-0.297       c3.613-0.134,7.358-0.179,10.979-0.222c2.488-0.03,4.977-0.06,7.468-0.116c2.98-0.069,6.021,0.04,9.239,0.154       c2.989,0.105,6.08,0.215,9.233,0.182c2.483-0.027,4.966-0.072,7.449-0.116c3.631-0.065,7.385-0.133,11.042-0.138       c3.149-0.005,6.257-0.127,9.262-0.245c3.211-0.125,6.245-0.247,9.255-0.228c2.698,0.015,5.397,0.011,8.097,0.009       c3.481-0.002,6.963-0.007,10.446,0.028c3.236,0.032,6.473,0.1,9.709,0.168c2.952,0.062,5.903,0.124,8.853,0.159       c2.805,0.035,5.668,0.236,8.699,0.449c3.189,0.225,6.488,0.457,9.881,0.498c3.454,0.043,6.804-0.135,10.043-0.305       c2.995-0.157,5.823-0.303,8.578-0.281c2.772,0.025,5.588,0.194,8.567,0.373c3.253,0.195,6.617,0.397,10.063,0.411       c3.541,0.01,6.963-0.214,10.271-0.435c2.932-0.196,5.7-0.381,8.39-0.39c2.116-0.008,4.242,0.063,6.445,0.153       c0.218,1.548,0.437,3.097,0.654,4.614c0.55,3.839,1.119,7.807,1.604,11.678c0.301,3.081,0.334,6.291,0.369,9.686       c0.015,1.499,0.031,2.998,0.068,4.495c0.164,6.555,0.677,11.671,1.66,16.589c0.943,4.717,5.087,8.039,9.796,8.039       c0.368,0,0.74-0.02,1.114-0.062c3.688-0.41,7.604-0.381,11.748-0.35c1.841,0.014,3.69,0.027,5.54,0.005       c2.997-0.035,6.003-0.035,9.008-0.03c3.12,0.003,6.238,0.004,9.347-0.033c2.565-0.03,5.212-0.135,7.9-0.285       c-0.011,1.007-0.021,2.007-0.034,3.024c-0.037,2.917-0.075,5.867-0.075,8.817c0,3.184,0.171,6.264,0.336,9.244       c0.146,2.661,0.286,5.179,0.294,7.563c-0.114,2.73-0.277,5.537-0.436,8.253c-0.187,3.203-0.379,6.516-0.5,9.822       c-0.122,3.31-0.114,6.577-0.107,9.736C181.187,218.585,181.192,221.389,181.1,224.18z"/><path d="M112.344,368.153c-3.807,0.212-7.759,0.055-11.946-0.111c-1.817-0.072-3.644-0.144-5.481-0.188       c-4.581-0.111-9.302-0.319-13.867-0.521l-4.28-0.187c-1.274-0.054-2.543-0.093-3.808-0.122       c-0.159-3.029-0.083-6.106-0.008-9.118c0.059-2.344,0.2-4.686,0.351-7.164c0.185-3.038,0.376-6.179,0.404-9.379       c0.063-7.273-0.558-13.264-1.956-18.853c-1.066-4.262-4.789-7.328-9.176-7.56c-6.843-0.36-13.099-0.57-19.123-0.643       c-6.461-0.079-12.512-0.205-18.498-0.386c-2.83-0.086-5.596-0.218-8.304-0.384c1.317-5.453,2.286-11.327,3.031-18.407       c0.743-7.064,0.838-13.936,0.838-19.133c0-7.188-3.044-11.192-5.598-13.286c-1.981-1.625-6.282-4.15-12.872-2.858       c-3.926,0.732-8.022,1.048-13.682,1.054c-5.191,0.004-10.098,0.009-15.027-0.308c-1.307-0.084-2.637-0.182-3.979-0.281       c-4.104-0.302-8.347-0.615-12.656-0.615c-5.294,0-9.671,4.127-9.983,9.413c-0.181,3.081-0.221,6.212-0.259,9.24       c-0.038,2.943-0.073,5.722-0.228,8.416c-0.153,2.675-0.422,5.377-0.707,8.238c-0.293,2.938-0.595,5.978-0.772,9.068       c-0.19,3.311-0.396,6.708-0.599,10.066c-0.063,1.045-0.126,2.083-0.188,3.117c-0.114,0.135-0.234,0.265-0.342,0.407       c-1.657,2.191-2.339,4.967-1.888,7.676c0.895,5.372,1.14,11.35,1.314,17.014c0.136,4.426,0.478,8.798,0.808,13.025       c0.141,1.812,0.283,3.623,0.408,5.437c0.185,2.69,0.418,5.591,0.791,8.609c-3.01,1.794-4.894,5.03-4.894,8.57       c0,1.854,0.513,3.631,1.434,5.16c0.106,0.561,0.26,1.172,0.487,1.81c0.034,0.835-0.021,1.874-0.08,2.954       c-0.138,2.562-0.315,5.852,0.505,9.468c-0.825,4.721-0.616,9.227-0.428,13.286c0.055,1.192,0.112,2.387,0.138,3.582       c0.12,5.548-0.424,9.78-1.711,13.322c-1.115,3.065-0.664,6.482,1.208,9.154S-53.352,441-50.09,441       c1.362,0,2.835-0.106,4.26-0.21c1.02-0.074,2.175-0.158,2.813-0.158c0.208,0,0.416-0.007,0.624-0.02       c4.821-0.3,9.909-0.229,15.585-0.107c3.892,0.081,7.887,0.509,12.116,0.962c1.144,0.123,2.286,0.245,3.427,0.361       c4.296,0.436,9.931,1.068,15.405,2.095c0.622,0.116,1.241,0.173,1.852,0.173c1.008,0,1.99-0.161,2.924-0.449       c0.395,0.047,0.792,0.08,1.19,0.08c0.368,0,0.737-0.021,1.104-0.062c5.949-0.661,11.454-0.998,16.829-1.031       c2.789-0.019,5.701,0.2,8.781,0.431c2.912,0.218,5.924,0.443,9.042,0.481c4.849,0.054,9.575-0.246,14.147-0.543       c0.786-0.051,1.572-0.102,2.358-0.151c1.763,0.304,3.607,0.134,5.354-0.556c4.132,0.716,8.12,0.283,11.205-0.058       c1.325-0.146,2.587-0.287,3.621-0.321c1.548,0.176,3.176,0.444,4.89,0.727c3.141,0.517,6.388,1.052,9.876,1.155       c0.35,0.011,0.698,0.016,1.049,0.016c4.327,0,8.736-0.798,13.361-2.424c6.384,0.869,9.781-3.379,10.705-4.764       c0.495-0.741,0.889-1.546,1.171-2.392c0.803-2.409,1.115-4.792,1.392-6.895c0.151-1.152,0.34-2.585,0.537-3.176       c0.34-1.02,0.513-2.087,0.513-3.162c0-3.08,0.263-6.346,0.541-9.802c0.31-3.845,0.63-7.82,0.621-11.954       c-0.021-8.75-1.74-17.178-5.113-25.047C120.435,370.335,116.529,367.905,112.344,368.153z M-19.921,333.021       c2.52,0.121,5.126,0.247,7.779,0.279c1.558,0.019,3.103,0.02,4.635,0.011c0.156,0.031,0.313,0.052,0.469,0.086       c0.688,0.147,1.391,0.222,2.095,0.222c0.351,0,0.679-0.02,1.011-0.037c0.021,1.16,0.039,2.318,0.057,3.466       c0.021,1.294,0.041,2.578,0.064,3.845c0.115,6.165,0.426,12.331,0.746,18.076c0.155,2.796,0.417,5.68,0.797,8.76       c-4.322-0.564-8.796-1.062-13.146-1.288c-2.232-0.116-4.451-0.165-6.651-0.165c-4.453,0-8.827,0.201-13.06,0.458       c-0.305-2.513-0.495-4.983-0.653-7.286c-0.129-1.875-0.275-3.747-0.422-5.618c-0.326-4.181-0.635-8.13-0.757-12.085       c-0.086-2.793-0.191-5.666-0.373-8.568c2.996,0.025,5.883-0.113,8.597-0.251c0.983-0.049,1.957-0.095,2.929-0.135       C-23.892,332.835-21.942,332.923-19.921,333.021z M43.21,334.307c3.326,0.04,6.732,0.125,10.283,0.256       c0.166,2.027,0.235,4.219,0.214,6.624c-0.023,2.682-0.19,5.432-0.367,8.343c-0.154,2.546-0.314,5.178-0.382,7.881       c-0.07,2.844-0.138,5.89-0.032,9.08c-1.151-0.05-2.299-0.102-3.437-0.154l-2.7-0.122c-5.554-0.245-11.397-0.442-17.862-0.604       c-3.228-0.08-6.539-0.081-9.899-0.016c-0.023-2.624-0.095-5.235-0.244-7.856c-0.118-2.09-0.196-4.182-0.275-6.273       c-0.144-3.821-0.293-7.773-0.675-11.799c-0.198-2.085-0.464-4.095-0.736-6.067c2.38,0.131,4.796,0.24,7.253,0.313       C30.458,334.098,36.626,334.227,43.21,334.307z M-34.57,296.995c0.293-2.941,0.596-5.982,0.773-9.077       c0.15-2.606,0.203-5.212,0.238-7.758c0.485,0.035,0.97,0.071,1.452,0.106c1.404,0.104,2.795,0.206,4.164,0.294       c5.58,0.358,11.043,0.351,16.331,0.349c3.367-0.003,7.542-0.091,12.102-0.612c-0.061,3.896-0.234,8.333-0.698,12.744       c-0.681,6.483-1.552,11.718-2.74,16.471c-0.336,1.345-0.507,2.604-0.606,3.757c-0.803,0.011-1.601,0.02-2.391,0.029       c-3.75-0.575-7.404-0.771-10.888-0.771c-2.648,0-5.203,0.099-7.635,0.192l-1.41,0.054c-0.071,0.003-0.143,0.007-0.214,0.01       c-1.381-0.025-2.771-0.034-4.183,0.001l-1.445,0.035c-1.327,0.032-2.667,0.066-4.011,0.104c0.156-2.579,0.31-5.162,0.456-7.696       C-35.124,302.554-34.855,299.854-34.57,296.995z M-2.804,422.646c-2.332-0.287-4.513-0.521-6.443-0.717       c-1.104-0.111-2.209-0.23-3.314-0.349c-4.464-0.479-9.08-0.974-13.83-1.072c-2.854-0.06-5.577-0.108-8.238-0.108       c-1.102,0-2.192,0.008-3.276,0.027c0.133-2.087,0.173-4.279,0.123-6.6c-0.029-1.36-0.091-2.721-0.154-4.077       c-0.183-3.938-0.341-7.339,0.416-10.113c0.572-2.098,0.444-4.325-0.363-6.344c-0.325-0.813-0.238-2.426-0.137-4.294       c0.013-0.239,0.025-0.494,0.038-0.745c0.536-0.182,1.085-0.406,1.647-0.676c3.971-0.454,7.453-0.562,10.711-0.342       c2.342,0.16,4.771,0.484,7.342,0.829c3.531,0.473,7.183,0.961,11.044,1.078c1.931,0.06,3.877,0.029,5.836-0.087       c-0.113,1.411-0.21,2.851-0.277,4.355c-0.289,6.484-0.232,12.818,0.161,18.843c-0.062,0.604-0.127,1.208-0.188,1.812       C-1.989,416.915-2.371,419.755-2.804,422.646z M51.318,423.464c-1.757,0.069-3.487,0.105-5.208,0.084       c-2.495-0.031-5.071-0.224-7.798-0.428c-3.206-0.24-6.517-0.487-9.961-0.487c-0.145,0-0.291,0-0.437,0.001       c-2.834,0.018-5.692,0.109-8.609,0.276c-0.117-1.646-0.24-3.278-0.36-4.889c-0.135-1.805-0.266-3.609-0.393-5.414       c0.062-0.589,0.121-1.179,0.183-1.768c0.485-4.596,0.987-9.349,1.295-14.135c0.192-2.984,0.368-6.007,0.534-9.022       c2.187,0.211,4.292,0.377,6.276,0.522c6.733,0.491,13.086,0.729,19.425,0.729c1.482,0,2.959,0.014,4.454,0.034       c0.305,1.866,0.528,3.808,0.672,5.842c0.288,4.073,0.319,8.224,0.352,12.618c0.011,1.426,0.021,2.854,0.041,4.291l0.01,0.717       c0.006,0.476,0.014,0.956,0.021,1.435c-0.221,1.552-0.403,3.162-0.484,4.814C51.263,420.088,51.229,421.7,51.318,423.464z        M106.646,409.595c-0.261,3.242-0.529,6.58-0.592,9.971c-0.239,0.958-0.416,1.901-0.562,2.814       c-2.819,1.039-5.28,1.49-7.582,1.428c-2.153-0.064-4.617-0.471-7.225-0.899c-2.138-0.353-4.347-0.716-6.686-0.95       c-0.332-0.033-0.664-0.05-0.997-0.05c-2.211,0-4.372,0.239-6.279,0.451c-1.304,0.145-3.231,0.342-4.549,0.347       c-0.205-2.442-0.286-4.926-0.335-7.467c0.144-0.869,0.299-1.753,0.464-2.662c0.377-2.075,0.766-4.222,1.013-6.452       c0.041-0.366,0.062-0.734,0.062-1.104c0-2.19-0.099-4.369-0.193-6.477c-0.115-2.558-0.225-4.974-0.164-7.297       c0.036-1.366,0.119-2.773,0.218-4.191c0.896,0.024,1.799,0.035,2.685,0.073l4.243,0.185c4.662,0.205,9.483,0.418,14.263,0.534       c1.736,0.042,3.46,0.11,5.175,0.179c2.04,0.081,4.11,0.163,6.212,0.203c0.92,3.544,1.377,7.205,1.386,11.062       C107.21,402.598,106.937,405.996,106.646,409.595z"/></g></g></g></g><g id="Layer_1_1_"/></g></svg>