<?xml version="1.0" ?><svg id="Layer_1" style="enable-background:new 0 0 52 52;" version="1.1" viewBox="0 0 52 52" xml:space="preserve" xmlns="http://www.w3.org/2000/svg" xmlns:xlink="http://www.w3.org/1999/xlink"><style type="text/css">
	.st0{fill:#231F20;}
</style><g><g><path class="st0" d="M5.5613523,4.3886089c11.930933,0.0422292,23.8618641,0.0844588,35.7927971,0.1266885    c2.9736023,0.0105252,3.5442314-0.3654532,5.8900604,1.6919065c2.1804047,1.9122763,1.9293938,1.9357157,1.9852791,4.4440184    c0.0616379,2.7665501,0.0866203,5.5336781,0.0960732,8.3008556c0.0166245,4.8670216,1.6538658,15.1061954-2.5847626,18.0743198    c-4.2206116,2.9555016-12.757103,1.6038055-17.8633118,1.6146545c-5.7069607,0.0121269-11.4165192-0.0777893-17.121254-0.2371445    c-4.6356554-0.1294899-8.7589808-1.1598892-9.0098495-6.7131214c-0.1268373-2.8076668-0.0486846-5.6373253-0.0729566-8.4478207    C2.6419132,19.5938816,0.4011244,4.3248773,6.4247742,4.1019778c1.4434829-0.0534143,1.4504962-2.303674,0-2.2499998    C-0.1165076,2.0940318,0.290731,7.8777499,0.334258,12.9178505c0.0378294,4.380352,0.0756587,8.760704,0.113488,13.1410542    c0.0280106,3.2434196-0.7293659,7.9083271,1.0605456,10.8631344c2.9145918,4.8114433,10.2818089,3.7448463,15.0030918,3.8405266    c9.4989185,0.1925087,19.0358467,0.2842522,28.5246735-0.2924156c1.914711-0.1163635,3.3353081,0.0016365,4.5927887-1.4875526    c1.8246269-2.1608353,1.7829247-6.6715431,1.8991699-9.3469944c0.1809235-4.1640835,0.0665054-8.361599,0.0391731-12.5283756    c-0.0223579-3.4085102,0.4253654-7.3241329-0.2740326-10.6881294C49.9555244-0.01471,40.0337372,2.2606237,35.3886833,2.2441826    C25.4462395,2.2089913,15.5037956,2.1738,5.5613523,2.1386087C4.1133819,2.1334836,4.1114264,4.3834767,5.5613523,4.3886089    L5.5613523,4.3886089z"/></g><g><path class="st0" d="M1.936799,32.5900002c15.875001,0,31.75,0,47.625,0c1.4477692,0,1.4501648-2.2500019,0-2.2500019    c-15.875,0-31.7499981,0-47.625,0C0.4890314,30.3399982,0.4866334,32.5900002,1.936799,32.5900002L1.936799,32.5900002z"/></g><g><path class="st0" d="M25.1868,36.9650002c1.4477673,0,1.4501648-2.25,0-2.25    C23.7390308,34.7150002,23.7366333,36.9650002,25.1868,36.9650002L25.1868,36.9650002z"/></g><g><path class="st0" d="M16.6127911,11.3972788c-2.1006927,2.2553434-4.9042768,4.1256104-6.6752605,6.6394587    c-0.3269129,0.4640408-0.1154804,1.2994823,0.403595,1.5392132c0.8980055,0.4147358,1.8678284,0.4532566,2.7252607,0.9296436    c1.0498676,0.5833015,1.9232531,1.5439892,2.8163385,2.3388958c1.0784874,0.9599247,2.675293-0.6258888,1.5909901-1.5909901    c-0.9325905-0.8300686-1.8463202-1.790575-2.8824472-2.4888306c-1.0185862-0.6864357-2.042944-0.6366291-3.1145239-1.1315289    c0.134532,0.5130711,0.2690639,1.0261421,0.4035959,1.5392151c0.8418407-1.1949635,2.100811-2.0624371,3.1688766-3.0390854    c1.0974493-1.0035162,2.1411848-2.0570164,3.1545649-3.1450014    C19.1898384,11.9296198,17.6022568,10.3349714,16.6127911,11.3972788L16.6127911,11.3972788z"/></g><g><path class="st0" d="M16.4939899,22.9364033c0.166666,0.125,0.333334,0.25,0.5,0.375    c0.4864216,0.3648167,1.2572765,0.0784321,1.5392132-0.403595c0.3363895-0.5751247,0.0839996-1.1735191-0.403595-1.5392151    c-0.166666-0.125-0.333334-0.25-0.5-0.375c-0.4864216-0.3648148-1.2572765-0.0784302-1.5392132,0.4035969    C15.7540045,21.9723148,16.0063953,22.5707073,16.4939899,22.9364033L16.4939899,22.9364033z"/></g><g><path class="st0" d="M29.607872,9.1692162c-1.0121441,2.7777014-3.9248638,5.3247232-5.6697292,7.7117901    c-1.7575607,2.4044361-3.278101,4.911253-4.4403152,7.6572361c-0.5578194,1.3179722,1.3797073,2.4660683,1.9428101,1.1356182    c1.3522339-3.194952,3.2037086-6.0486088,5.3011341-8.8025131c1.7188263-2.2568064,4.0545158-4.4111767,5.0357285-7.1039925    C32.274025,8.4047022,30.1004677,7.8173475,29.607872,9.1692162L29.607872,9.1692162z"/></g><g><path class="st0" d="M33.5952072,13.4163055c0.906517,1.0731125,4.4102135,3.5676689,3.8101768,5.1513023    c-0.2458191,0.6487675-1.8250923,1.546793-2.3491173,2.0443363c-0.7870827,0.7473049-1.5190544,1.5409336-2.2330666,2.3574505    c-0.9495411,1.0858669,0.6356125,2.6835308,1.590992,1.5909901c1.2661476-1.4479275,2.6414261-2.6828251,4.064827-3.9631176    c0.8051872-0.7242355,1.5514297-1.4540958,1.5435333-2.6160507c-0.0166016-2.4419289-3.409935-4.4673376-4.8363533-6.155901    C34.2505493,10.7177153,32.6658363,12.3161383,33.5952072,13.4163055L33.5952072,13.4163055z"/></g><g><path class="st0" d="M17.5231209,50.08778c2.8164864-0.711216,5.911417-1.8485603,8.8348713-1.950676    c2.9152431-0.1018257,5.1332493,1.5939102,7.9153957,1.9981079c1.4163551,0.2057724,2.0279083-1.9619064,0.5981407-2.1696281    c-3.0467224-0.4426384-5.2996349-2.2318382-8.5135365-2.0784798c-3.1890945,0.1521759-6.3593311,1.2548866-9.433012,2.0310478    C15.5219393,48.2724419,16.1164398,50.4429893,17.5231209,50.08778L17.5231209,50.08778z"/></g><g><path class="st0" d="M30.4368,40.5900002c0,2.125,0,4.25,0,6.375c0,1.4477654,2.2499981,1.4501648,2.2499981,0    c0-2.125,0-4.25,0-6.375C32.6867981,39.142231,30.4368,39.1398315,30.4368,40.5900002L30.4368,40.5900002z"/></g><g><path class="st0" d="M20.0618,40.2150002c0,2.625,0,5.25,0,7.875c0,1.4477654,2.25,1.4501648,2.25,0c0-2.625,0-5.25,0-7.875    C22.3118,38.767231,20.0618,38.7648315,20.0618,40.2150002L20.0618,40.2150002z"/></g></g></svg>