<?xml version="1.0" ?><svg enable-background="new -134.908 82.953 337.843 397.098" id="Layer_1" version="1.1" viewBox="-134.908 82.953 337.843 397.098" xml:space="preserve" xmlns="http://www.w3.org/2000/svg" xmlns:xlink="http://www.w3.org/1999/xlink"><g><g id="_x32_9_x2C__PSD_x2C__File_Type_x2C__Photoshop"><g><g><g><g><path d="M-70,159.738c-1,0-2.946-0.063-1.946-0.063c4.847,0.969,9.816,1.571,14.45,2.126        c4.927,0.591,9.391,1.567,12.483,6.206c0,2,1.045,4.004-1.955,6.004c2,1,3.187,3.062,3.187,5.062        c-2,4-6.557,3.589-9.557,6.589c-2,2-3.677,2.276-5.677,3.276c-2,0-4.006,0.106-6.006,0.106c0-1,1.314-3.239,2.314-2.239        c1,2-2.953,2.195-2.953,4.195c0,1-0.71,3.124-0.71,4.124c1,2,1.421,4.976,4.421,5.976c-5,0-9.672-0.334-13.672,2.666        c1.503-7.017,1.501-13.792,1.627-20.808c0.125-6.983-0.047-13.986,1.948-20.969c0-1,1.364-0.738,2.364-1.738        C-69.603,160.148-70,159.738-70,159.738z M-60.235,178.883c-1,2-3.452-0.987-4.452,2.013c2,0,3.782,0.58,5.782,0.58        c3-1,1.919-5.475,1.919-8.475c0-1,1.952-1,1.952-2s-0.04-0.781-0.04-1.781c-3,0-4.713-1.646-7.713-2.646        c1,0,0.815,1.37,1.815,1.37c-3-1-5.029,2.009-8.029,1.009c4,1,3.326,4.918,4.326,7.918c1,2,2.651,1.792,4.651,1.792        C-59.892,178.653-60.235,178.883-60.235,178.883z"/></g><g><path d="M-33.811,190.189c-1,1-0.948,0.569-1.948,1.569c4,2,9.607,4.976,14.607,1.976c2-1,2.361-3.943,1.361-4.943        c-3-3-9.542-2.458-12.542-5.458c-6-6-4.489-17.871,3.511-21.871c5-1,9.822,2.094,14.822-0.906c1,3,1.1,6.411,1.1,9.411        c1,0,1.845-0.243,2.845,0.757c-6,0-10.945-1.796-15.945-4.796c-3,3-5.375,6.353-3.375,9.353c4,5,14.694,1.574,17.694,7.574        c2,5,0.786,13.399-5.214,16.399c-6,2-15.063,5.725-21.063,1.725c2-4-0.924-8.636,4.076-10.636        C-33.754,190.298-33.811,190.189-33.811,190.189z"/></g><g><path d="M0.006,158.966c6,1,12.854,2.231,18.854,3.231c1,4,5.207,4.67,8.207,5.67c1,1,0.889,2.155,1.889,3.155        c1,3-2.046,6.012-1.046,9.012c2,5,6.441,10.228,2.44,15.228c-2,3-5.141-0.055-9.141,2.945        c-3.081,4.108-7.694,5.333-12.464,5.279c-4.519-0.051-9.366-1.085-13.744-1.085c-1,0-1-0.948-2-1.948        c0.707,0,1.024,1.259,1.094,0.556c-0.502-6.021-0.988-11.825-0.609-17.595c0.376-5.73,1.206-11.504,2.203-17.484        c1-3,2.367-4.877,4.367-6.877C0.067,159.042,0.006,158.966,0.006,158.966z M9.024,193.024c-1,1-2.241,1.083-3.241,1.083        c3,4,10.08,1.833,12.08-2.167c1-3-0.824-6.91-0.824-10.91c4-1,4.052-4.065,3.052-7.065c-2-5-9.091-7.529-15.091-7.529        c1,0,3,0.27,4,0.27c-1,0-2.515-0.653-3.515-0.653c0.5,4.499-0.836,9.238-1.336,13.862c-0.5,4.626-0.951,9.423,2.549,13.424        c0.747,0.664,1.299-0.245,2.299-0.245C9.015,193.095,9.024,193.024,9.024,193.024z"/></g></g><g><g><path d="M-24.012,279.78c6-0.333,12.041-0.301,18.04-0.782c6.007-0.482,11.988-0.77,17.995-0.806        c5.994-0.036,11.948,0.005,17.942,1.004c5,1,10.388,2.627,13.388,7.628c0,1,1.548,3.242-0.452,5.242        c4,1,7.88,3.131,10.88,6.131c6,7,7.106,16.774,3.106,24.774c0.492,5.909,0.99,12.305,0.534,18.349        c-0.469,6.229-1.763,12.192-6.331,16.761c-4,5-12.083,5.936-19.083,8.936S17,368.878,10,368.878c-3,0-2.795-2.674-4.795-3.674        c1,2-1.76-0.121-1.76,1.879c-1.492,5.969-3.001,11.842-3.255,17.811c-0.256,6.031,0.229,12.087,0.731,18.118        c1,4,2.051,8.922,3.051,12.922c-8-1-16.844-3.273-24.844-0.273c0-6,0.334-11.656,0.398-17.657        c0.064-6-0.394-12.007-0.298-18.007c0.096-5.999,0.578-11.993,0.674-17.992c0.096-6-0.333-12.007-0.269-18.007        S-19.709,332-19.709,326c0-5.079-0.388-10.277-0.318-15.508c0.069-5.148,0.7-10.375,0.091-15.521        c-0.599-5.066-1.886-10.129-3.855-15.051C-23.831,279.816-24.012,279.78-24.012,279.78z M1.054,340.786        c8,2,16.023,4.575,25.023,2.575c5-1,10.382-5.528,8.382-10.528c-2-6-3.27-10.77-1.27-16.77        c2.074-6.224-1.836-9.725-7.013-11.804c-4.805-1.931-10.919-2.834-15.251-2.353c0,3-3.208,3.01-4.208,6.01        c-1.491,5.468-1.333,11.257-1.701,16.85c-0.373,5.66-1.297,11.02-4.315,16.049C0.643,340.909,1.054,340.786,1.054,340.786z"/></g><g><path d="M74.906,399.906c-0.5,0.5-0.488,0.513-0.805,1.145c0,1,0.878,2.113,1.878,2.113c7,1,14.093,3.233,22.093,2.233        c3-1,5.872-3.388,4.872-6.388c0-3-2.964-5.986-4.964-7.986c-3.954-2.966-8.84-4.573-13.174-6.913        c-4.433-2.394-8.59-5.411-11.118-9.962c-3-7-2.859-15.188-1.859-22.188c2-6,7.308-9.533,12.308-10.533        c6.041-2.517,11.955-4.637,17.996-4.492c5.959,0.143,11.832,2.264,17.791,5.243c1,0,0.81,0.732,0.81,1.732        c-2,5-4.589,9.449-6.589,14.449c-8-1-16.354-5.57-23.354-1.57c0,3-2.874,7.282-0.874,9.282c4,5,10.871,6.354,16.871,9.354        c6.087,3.043,11.264,8.374,13.089,14.99c1.772,6.427,0.271,13.444-4.163,19.357c-1,1-1.757,1.192-2.757,3.192        c-2,2-4.938,2.057-6.938,4.057c-6,4-13.978,4.791-20.978,2.791c-7-1-13.422-4.585-20.422-5.585        c4-4,2.358-15.025,10.358-14.025C75.043,400.211,74.906,399.906,74.906,399.906z"/></g></g><path d="M202.799,158.306c-0.067-2.846-0.131-5.534-0.131-8.244c0-4.044-2.437-7.691-6.173-9.239      c-0.33-0.136-0.664-0.25-1.001-0.349c-0.299-0.113-0.603-0.211-0.913-0.295c-3.836-3.35-7.508-6.938-10.794-10.154      c-2.547-2.491-4.905-5.23-7.403-8.131c-1.327-1.542-2.652-3.079-4.008-4.585c-0.938-1.043-1.882-2.082-2.825-3.12      c-3.03-3.336-5.892-6.487-8.628-9.811c-1.475-1.792-2.985-3.573-4.505-5.364c-1.445-1.703-2.921-3.443-4.368-5.199      c0.001-0.091,0.002-0.182,0.002-0.272c0-2.736-1.121-5.353-3.102-7.24c-1.981-1.887-4.655-2.881-7.382-2.749      c-2.946,0.143-5.857,0.393-8.672,0.636c-3.4,0.293-6.612,0.569-9.76,0.656c-3.414,0.095-6.821,0.064-10.427,0.033      c-2.609-0.023-5.305-0.046-8.006-0.019c-3.052,0.032-6.058,0.177-8.965,0.317c-3.302,0.16-6.453,0.305-9.501,0.3l-1.252-0.004      c-5.664-0.019-11.522-0.039-17.256-0.116c-3.435-0.046-6.967-0.15-10.383-0.251c-2.717-0.08-5.434-0.16-8.151-0.215      c-2.638-0.053-5.276-0.097-7.914-0.141c-3.553-0.059-7.105-0.118-10.658-0.2c-3.171-0.074-6.343-0.109-9.515-0.144      c-3.031-0.033-6.062-0.066-9.092-0.135c-2.84-0.064-5.681-0.228-8.689-0.4c-3.226-0.185-6.561-0.376-9.94-0.439      c-2.686-0.051-5.372-0.133-8.058-0.216c-3.463-0.106-7.044-0.216-10.617-0.257c-3.542-0.037-7.006,0.103-10.352,0.239      c-2.881,0.118-5.602,0.229-8.312,0.229c-0.757,0-1.511,0.086-2.249,0.256c-3.731,0.861-8.201,0.605-12.932,0.335      c-1.498-0.085-2.996-0.17-4.493-0.226c-7.716-0.287-14.714-0.392-21.965,1.178c-6.029,0.579-9.075,4.446-10.107,8.101      c-2.573,7.448-2.487,15.4-2.117,21.537c0.133,2.2,0.364,4.431,0.685,6.705c-2.093,0.115-4.363,0.12-6.951,0.008l-1.824-0.085      c-5.413-0.26-11.548-0.556-18.327,1.139c-2.943,0.736-5.393,2.768-6.66,5.523c-1.268,2.756-1.216,5.938,0.141,8.651      c0.546,1.093,0.479,2.051-0.022,5.357c-0.303,2.001-0.646,4.264-0.663,6.884c-0.089,2.488-0.122,4.957-0.154,7.348      c-0.04,2.97-0.077,5.774-0.213,8.572c-0.129,2.631-0.204,5.258-0.276,7.798c-0.083,2.888-0.16,5.616-0.31,8.354      c-0.134,2.439-0.4,4.929-0.683,7.565c-0.297,2.773-0.604,5.642-0.767,8.6c-0.165,3-0.244,5.985-0.321,8.871      c-0.068,2.558-0.133,4.974-0.252,7.401c-0.158,3.244-0.233,6.455-0.306,9.56c-0.052,2.224-0.104,4.449-0.187,6.687      c-0.101,2.715,0.907,5.354,2.792,7.31c1.885,1.956,4.484,3.061,7.201,3.061c1.871,0,3.747,0.038,5.631,0.074      c3.188,0.063,6.486,0.128,9.908,0.028c2.727-0.078,5.417-0.25,8.02-0.416c2.536-0.162,4.932-0.314,7.302-0.383      c0.257-0.007,0.496-0.014,0.747-0.021c-0.066,0.77-0.136,1.536-0.198,2.308c-0.166,2.083-0.336,4.165-0.506,6.244      c-0.332,4.049-0.663,8.091-0.957,12.129c-0.257,3.519-0.383,7.008-0.504,10.381c-0.101,2.794-0.196,5.433-0.36,8.08      c-0.16,2.599-0.436,5.221-0.727,7.998c-0.355,3.378-0.722,6.872-0.886,10.468c-0.173,3.794-0.193,7.561-0.214,11.204      c-0.014,2.543-0.027,4.946-0.088,7.375c-0.097,3.906-0.026,7.78,0.042,11.528c0.042,2.321,0.084,4.646,0.086,6.974      c-0.072,3.073-0.277,6.163-0.495,9.433c-0.207,3.104-0.42,6.313-0.514,9.563c-0.102,3.495-0.105,6.979-0.109,10.347      c-0.003,3.07-0.006,5.971-0.077,8.893c-0.065,2.716-0.225,5.435-0.394,8.313c-0.209,3.575-0.426,7.271-0.454,11.033l-0.01,1.243      c-0.046,5.962-0.093,12.126,0.037,18.238c0.103,4.886,0.435,9.719,0.757,14.394c0.119,1.728,0.238,3.455,0.345,5.183      c0.282,4.553,0.881,8.963,1.46,13.228c0.287,2.116,0.575,4.231,0.82,6.354c0.22,1.903,0.409,3.813,0.599,5.725      c0.45,4.536,0.916,9.228,1.781,13.988c0.977,5.379,6.095,8.977,11.483,8.076c3.121-0.521,6.132-0.394,9.619-0.249      c1.817,0.076,3.697,0.154,5.761,0.154c0.142,0,0.284-0.003,0.425-0.009c1.779-0.076,3.557-0.157,5.335-0.239      c3.99-0.184,8.116-0.373,12.128-0.484c2.874-0.078,5.798-0.004,8.894,0.077c2.791,0.072,5.676,0.147,8.614,0.104      c2.978-0.044,5.897-0.209,8.721-0.369c3.059-0.174,5.949-0.337,8.793-0.348c2.393-0.009,4.785-0.036,7.178-0.063      c3.41-0.04,6.938-0.08,10.361-0.062c3.774,0.02,7.549,0.077,11.324,0.135c2.079,0.032,4.158,0.063,6.236,0.089      c2.627,0.032,5.353,0.263,8.238,0.507c3.001,0.254,6.104,0.517,9.324,0.571c3.028,0.055,6.031,0.013,8.936-0.027      c3.003-0.042,5.838-0.079,8.667-0.022c2.824,0.058,5.634,0.193,8.608,0.337c2.926,0.142,5.952,0.287,8.955,0.352      c2.724,0.069,5.426,0.066,8.043,0.063c2.986,0.001,5.803-0.006,8.612,0.091c2.57,0.089,5.145,0.263,7.87,0.447      c2.88,0.194,5.857,0.396,8.878,0.492c6.513,0.207,11.877,0.346,16.881,0.435l0.409,0.008c4.505,0.08,9.136,0.163,13.77,0.163      c0.945,0,1.89-0.004,2.833-0.011c3.717-0.03,7.333-0.288,10.829-0.537c2.172-0.154,4.224-0.3,6.271-0.393      c1.535-0.07,3.071-0.126,4.609-0.182c4.087-0.149,8.313-0.303,12.601-0.707c5.023-0.472,10.527-1.178,17.321-2.222      c5.239-0.805,8.94-5.557,8.438-10.834c-0.158-1.651-0.335-3.32-0.513-4.998c-0.376-3.541-0.765-7.202-0.945-10.656      c-0.104-1.962-0.233-3.927-0.364-5.895c-0.225-3.399-0.438-6.611-0.513-9.816c-0.083-3.542-0.086-7.198-0.09-10.733      c-0.002-1.708-0.004-3.413-0.014-5.114c-0.015-2.362,0.166-4.836,0.356-7.456c0.199-2.736,0.405-5.565,0.405-8.508      c0-0.126-0.002-0.252-0.007-0.378c-0.107-2.825-0.317-5.595-0.521-8.273c-0.24-3.162-0.467-6.149-0.521-9.076      c-0.071-3.92-0.06-7.955-0.048-11.856c0.005-1.849,0.011-3.696,0.008-5.542c-0.007-4.852,0.059-9.814,0.122-14.614l0.036-2.807      c0.037-2.93,0.204-5.877,0.38-8.998c0.155-2.738,0.314-5.57,0.384-8.438c0.066-2.748,0.082-5.496,0.097-8.153      c0.019-3.22,0.036-6.262,0.136-9.327c0.102-3.147,0.259-6.388,0.411-9.521c0.129-2.654,0.259-5.31,0.359-7.962      c0.119-3.115,0.093-6.172,0.067-9.127c-0.025-2.929-0.049-5.695,0.063-8.419c0.119-2.937,0.252-5.875,0.386-8.816      c0.132-2.907,0.264-5.817,0.383-8.731c0.109-2.71,0.286-5.405,0.474-8.259c0.199-3.027,0.404-6.158,0.523-9.313      c0.005-0.125,0.007-0.251,0.007-0.376c0-3.014-0.087-6.018-0.171-8.923c-0.098-3.383-0.19-6.579-0.157-9.783      c0.039-3.812,0.111-7.632,0.183-11.458c0.046-2.428,0.091-4.858,0.129-7.291c0.048-3.123,0.104-6.248,0.161-9.372      c0.058-3.145,0.115-6.289,0.163-9.43c0.044-2.856,0.13-5.71,0.217-8.562c0.101-3.357,0.205-6.829,0.24-10.284      C202.963,165.292,202.88,161.741,202.799,158.306z M154.745,127.635c0.923,1.015,1.845,2.03,2.763,3.05      c1.258,1.398,2.487,2.827,3.72,4.258c1.699,1.973,3.448,3.987,5.302,5.99c-3.067-0.049-6.178-0.142-9.268-0.318      c-1.473-0.083-2.947-0.18-4.426-0.275c-2.513-0.163-5.073-0.329-7.683-0.443c-0.847-4.061-1.478-7.986-1.917-11.904      c-0.594-5.31-1.076-10.117-1.027-14.799c1.099,1.297,2.2,2.592,3.271,3.893C148.526,120.788,151.688,124.269,154.745,127.635z       M-94.625,219.23c-2.719,0.079-5.402,0.25-7.996,0.415c-2.543,0.162-4.946,0.315-7.324,0.383      c-1.563,0.045-3.118,0.05-4.696,0.036c0.051-1.949,0.113-3.859,0.208-5.788c0.129-2.648,0.2-5.289,0.268-7.843      c0.077-2.875,0.149-5.59,0.298-8.311c0.134-2.439,0.4-4.929,0.683-7.565c0.297-2.773,0.604-5.642,0.767-8.6      c0.165-3,0.25-5.989,0.332-8.88c0.073-2.552,0.141-4.963,0.26-7.39c0.154-3.153,0.195-6.27,0.235-9.284      c0.033-2.435,0.063-4.735,0.148-7.043c0.004-0.123,0.007-0.247,0.007-0.37c0-1.199,0.203-2.538,0.438-4.088      c0.177-1.17,0.372-2.455,0.497-3.841c1.173,0.033,2.381,0.091,3.636,0.151l1.916,0.089c4.267,0.184,9.672,0.221,15.622-0.743      c1.436,0.741,3.059,1.142,4.747,1.11c2.636-0.049,5.302,0.086,8.125,0.227c2.795,0.139,5.693,0.281,8.737,0.259      c3.131-0.024,6.139-0.258,9.047-0.484c2.829-0.22,5.501-0.427,8.063-0.427c0.002,0,0.005,0,0.008,0      c0.615,0,1.232,0.008,1.852,0.018c0.972,0.035,1.944,0.076,2.915,0.109c3.287,0.114,6.686,0.231,9.981,0.402      c2.833,0.146,5.662,0.329,8.491,0.511c2.905,0.187,5.809,0.374,8.713,0.524c3.272,0.169,6.464,0.159,9.552,0.145      c2.712-0.009,5.27-0.02,7.78,0.087c2.339,0.101,4.661,0.25,7.119,0.408c3.331,0.214,6.774,0.436,10.263,0.526      c1.768,0.046,3.537,0.103,5.306,0.161c3.956,0.129,8.045,0.262,12.154,0.262c0.011,0,0.022,0,0.032,0h0.947      c5.422,0,11.028,0,16.637-0.194c3.782-0.131,7.413-0.556,10.924-0.968c0.705-0.083,1.383-0.159,2.067-0.236      c1.868-0.003,3.736-0.008,5.602,0.004c0.303,0.002,0.604,0.003,0.907,0.004c0,2.644,0.052,5.271,0.107,7.858l0.038,1.826      c0.092,4.613,0.081,9.305,0.069,13.842c-0.003,1.413-0.007,2.816-0.007,4.207c-0.185,3.591-0.475,7.257-0.755,10.805      c-0.22,2.785-0.448,5.665-0.627,8.528c-0.406,6.502-0.741,13.523-0.438,20.809c0.14,3.385,0.555,6.782,1.115,10.083      c-0.222,0.008-0.443,0.016-0.665,0.024c-1.545,0.057-3.074,0.117-4.588,0.188c-2.204-0.192-4.464-0.477-6.819-0.779      c-1.788-0.229-3.579-0.458-5.378-0.652c-3.118-0.335-6.238-0.752-9.54-1.194c-1.95-0.261-3.911-0.522-5.889-0.77      c-0.157-0.02-0.315-0.036-0.474-0.048c-4.039-0.311-8.103-0.49-12.033-0.664c-2.63-0.116-5.267-0.232-7.903-0.388      c-3.972-0.236-7.967-0.377-11.831-0.514c-2.682-0.095-5.367-0.19-8.047-0.316c-3.745-0.177-7.5-0.277-11.131-0.375      c-2.906-0.077-5.809-0.154-8.702-0.271c-3.116-0.126-6.223-0.275-9.319-0.424c-3.497-0.167-6.98-0.334-10.45-0.468      c-0.128-0.005-0.257-0.007-0.385-0.007c-2.973,0-5.995-0.167-9.194-0.345c-3.33-0.185-6.773-0.375-10.3-0.375      c-3.455,0-6.837,0.139-10.107,0.272c-3.21,0.132-6.243,0.256-9.289,0.256c-3.682,0-6.92,2.003-8.656,5.007      C-91.843,219.154-93.191,219.189-94.625,219.23z M182.928,168.696c-0.033,3.256-0.135,6.625-0.233,9.884      c-0.089,2.95-0.178,5.902-0.224,8.858c-0.048,3.123-0.104,6.248-0.161,9.372c-0.058,3.145-0.115,6.289-0.163,9.43      c-0.037,2.409-0.082,4.817-0.127,7.223c-0.073,3.883-0.146,7.761-0.185,11.627c-0.038,3.595,0.064,7.139,0.164,10.566      c0.081,2.824,0.158,5.495,0.162,8.157c-0.109,2.813-0.293,5.611-0.487,8.568c-0.187,2.85-0.38,5.797-0.5,8.754      c-0.118,2.883-0.249,5.762-0.379,8.64c-0.135,2.972-0.27,5.942-0.39,8.908c-0.132,3.215-0.104,6.362-0.079,9.405      c0.025,2.851,0.048,5.543-0.054,8.193c-0.098,2.586-0.224,5.169-0.35,7.751c-0.156,3.215-0.317,6.539-0.425,9.847      c-0.108,3.331-0.127,6.651-0.145,9.862c-0.015,2.565-0.029,5.219-0.092,7.783c-0.062,2.545-0.205,5.094-0.357,7.792      c-0.181,3.198-0.367,6.506-0.41,9.872l-0.037,2.796c-0.063,4.872-0.131,9.91-0.123,14.908c0.003,1.817-0.003,3.636-0.008,5.454      c-0.012,4.006-0.023,8.147,0.052,12.282c0.064,3.503,0.324,6.919,0.575,10.223c0.192,2.538,0.374,4.939,0.47,7.321      c-0.01,2.161-0.176,4.451-0.353,6.872c-0.21,2.891-0.428,5.879-0.409,9.026c0.01,1.669,0.012,3.342,0.014,5.017      c0.004,3.646,0.008,7.415,0.096,11.178c0.084,3.635,0.321,7.214,0.551,10.676c0.125,1.876,0.25,3.749,0.348,5.618      c0.124,2.358,0.32,4.697,0.544,7.002c-2.403,0.303-4.627,0.549-6.745,0.748c-3.717,0.351-7.477,0.487-11.456,0.632      c-1.597,0.059-3.191,0.117-4.786,0.189c-2.306,0.104-4.583,0.267-6.786,0.423c-3.334,0.237-6.483,0.462-9.569,0.486      c-5.313,0.048-10.788-0.055-16.085-0.149l-0.409-0.007c-4.909-0.088-10.185-0.224-16.602-0.429      c-2.664-0.085-5.336-0.266-8.165-0.457c-2.768-0.187-5.63-0.38-8.532-0.48c-2.632-0.09-5.239-0.104-7.784-0.104      c-0.515,0-1.027,0.001-1.536,0.001c-2.604,0.005-5.054,0.006-7.554-0.059c-2.776-0.059-5.536-0.192-8.459-0.333      c-2.98-0.145-6.063-0.293-9.167-0.356c-3.172-0.063-6.312-0.021-9.347,0.021c-2.877,0.04-5.594,0.078-8.316,0.028      c-2.551-0.043-5.19-0.267-7.984-0.503c-3.112-0.263-6.33-0.535-9.678-0.576c-2.059-0.025-4.118-0.057-6.177-0.088      c-3.841-0.059-7.682-0.117-11.522-0.138c-3.593-0.018-7.205,0.022-10.697,0.063c-2.342,0.026-4.684,0.054-7.024,0.063      c-3.373,0.013-6.666,0.199-9.851,0.38c-2.738,0.155-5.324,0.302-7.882,0.339c-2.53,0.038-5.092-0.029-7.802-0.1      c-3.224-0.084-6.555-0.172-9.966-0.076c-4.195,0.116-8.413,0.311-12.492,0.498c-1.683,0.077-3.366,0.154-5.049,0.227      c-1.573-0.006-3.104-0.069-4.72-0.137c-1.132-0.048-2.275-0.096-3.441-0.123c-0.128-1.21-0.25-2.438-0.374-3.686      c-0.2-2.018-0.401-4.035-0.633-6.042c-0.264-2.287-0.572-4.557-0.87-6.751c-0.555-4.089-1.08-7.951-1.316-11.774      c-0.11-1.772-0.232-3.545-0.354-5.318c-0.319-4.646-0.621-9.032-0.714-13.442c-0.123-5.825-0.077-11.843-0.032-17.662      l0.009-1.247c0.024-3.251,0.217-6.536,0.421-10.013c0.171-2.921,0.348-5.94,0.422-9c0.076-3.153,0.08-6.306,0.083-9.354      c0.004-3.38,0.007-6.572,0.101-9.789c0.083-2.876,0.275-5.761,0.479-8.815c0.225-3.38,0.458-6.876,0.537-10.428      c0.001-0.073,0.002-0.147,0.002-0.222c0-2.516-0.045-5.022-0.089-7.447c-0.067-3.699-0.13-7.193-0.044-10.669      c0.065-2.621,0.08-5.234,0.094-7.763c0.02-3.604,0.039-7.009,0.193-10.403c0.137-3.006,0.458-6.058,0.797-9.29      c0.301-2.864,0.612-5.826,0.798-8.854c0.179-2.902,0.284-5.793,0.385-8.59c0.121-3.34,0.234-6.495,0.465-9.649      c0.29-3.98,0.616-7.962,0.943-11.951c0.171-2.095,0.343-4.192,0.51-6.293c0.117-1.478,0.248-2.972,0.382-4.462      c4.204-0.263,8.194-0.506,12.16-0.541c2.915-0.018,5.967,0.212,9.19,0.464c2.7,0.211,5.491,0.429,8.369,0.501      c2.761,0.069,5.489,0.053,8.127,0.037c3.33-0.021,6.473-0.038,9.575,0.104c2.944,0.134,5.892,0.383,9.012,0.646      c2.85,0.24,5.797,0.489,8.778,0.646c3.483,0.184,6.99,0.318,10.381,0.448c2.525,0.097,5.051,0.193,7.572,0.311      c2.042,0.095,4.085,0.207,6.128,0.318c3.896,0.212,7.926,0.432,11.961,0.541c0.66,0.018,1.315,0.025,1.966,0.025      c3.068,0,6.038-0.178,8.924-0.351c2.566-0.153,4.99-0.299,7.352-0.313c1.5-0.01,2.999-0.01,4.5-0.01      c4.467,0,9.085-0.002,13.77-0.245c0.747,0.054,1.494,0.106,2.254,0.139c5.768,0.247,11.219,0.205,16.664-0.131      c3.015-0.138,9.021-1.663,10.315-11.367c0.045-0.341,0.109-0.82,0.162-1.124c0.392-0.959,0.632-1.976,0.712-3.012l0.257-3.315      c0.416-5.336,0.846-10.854,1.139-16.362c0.127-2.403,0.306-4.788,0.495-7.314c0.304-4.054,0.618-8.247,0.7-12.514      c0.082-4.271-0.173-8.407-0.42-12.406c-0.161-2.617-0.314-5.089-0.373-7.541c-0.029-1.24-0.056-2.479-0.081-3.718      c-0.108-5.187-0.221-10.547-0.624-15.956c-0.025-1.824-0.211-3.457-0.361-4.786c-0.336-2.949-0.251-3.09,0.065-3.617      c1.854-3.089,1.901-6.937,0.127-10.072c-1.775-3.135-5.1-5.073-8.702-5.073c-2.569,0-5.123-0.002-7.678-0.006      c-3.425-0.633-6.684-0.558-9.328-0.5c-0.938,0.021-1.821-0.008-2.697,0.061c-1.421,0.109-2.816,0.25-4.194,0.4      c-0.296,0.001-0.591-0.001-0.887-0.001c-3.138,0.006-6.282,0.012-9.43-0.021c-2.663-0.028-5.367-0.186-8.23-0.353      c-2.891-0.169-5.88-0.344-8.938-0.384c-2.79-0.037-5.581-0.055-8.373-0.073c-2.938-0.02-5.878-0.039-8.817-0.08      c-3.051-0.042-6.102-0.073-9.154-0.104c-2.685-0.026-5.37-0.053-8.055-0.088c-3.143-0.042-6.217,0.059-9.192,0.155      c-2.795,0.09-5.437,0.176-8.041,0.149c-2.628-0.027-5.243-0.122-8.011-0.222c-3-0.108-6.104-0.22-9.23-0.239      c-2.58-0.016-5.171-0.123-7.915-0.237c-1.999-0.083-4.054-0.153-6.127-0.201c-1.582-0.056-3.164-0.109-4.745-0.177      c-2.309-0.1-4.617-0.238-6.926-0.376c-3.397-0.203-6.909-0.414-10.459-0.505c-2.55-0.065-5.071-0.046-7.548-0.004      c-0.391-2.355-0.658-4.627-0.791-6.834c-0.174-2.886-0.281-6.288,0.106-9.459c4.072-0.446,8.529-0.344,13.379-0.164      c1.364,0.05,2.729,0.129,4.093,0.207c5.31,0.303,11.286,0.644,17.395-0.564c2.746-0.024,5.439-0.134,8.054-0.241      c3.233-0.132,6.287-0.258,9.311-0.224c3.377,0.038,6.859,0.145,10.227,0.249c2.766,0.085,5.531,0.169,8.298,0.221      c2.994,0.056,5.993,0.228,9.168,0.41c3.045,0.175,6.193,0.355,9.379,0.428c3.109,0.071,6.219,0.105,9.329,0.139      c3.09,0.034,6.18,0.067,9.269,0.139c3.597,0.083,7.194,0.143,10.792,0.203c2.614,0.043,5.229,0.086,7.843,0.139      c2.655,0.054,5.311,0.132,7.966,0.21c3.494,0.103,7.106,0.209,10.699,0.258c5.837,0.079,11.746,0.099,17.461,0.118l1.25,0.004      c3.584,0.001,7.123-0.158,10.534-0.323c2.846-0.138,5.534-0.268,8.207-0.295c2.509-0.026,4.992-0.004,7.623,0.019      c3.32,0.03,6.751,0.048,10.204-0.028c-0.264,2.267-0.452,4.572-0.513,6.923c-0.16,6.232,0.445,12.281,1.136,18.448      c0.662,5.906,1.693,11.788,3.151,17.984c0.332,1.411,0.966,2.727,1.852,3.862c0.041,0.08,0.081,0.162,0.123,0.243      c0.941,1.841,3.807,7.443,10.513,7.443c4.121,0,8.212,0.265,12.542,0.546c1.532,0.1,3.06,0.198,4.585,0.285      c6.057,0.345,12.046,0.399,17.644,0.399c0.203,0,0.407,0,0.609,0c2.726-0.002,5.558-0.042,8.471-0.185      C182.91,163.481,182.954,166.078,182.928,168.696z"/></g></g></g><g id="Layer_1_1_"/></g></svg>